<svg version="1.1"
	 xmlns="http://www.w3.org/2000/svg" xmlns:xlink="http://www.w3.org/1999/xlink" x="0px" y="0px" width="96px" height="96px"
	 viewBox="0 0 96 96" enable-background="new 0 0 96 96" xml:space="preserve">
	<g>
		<path fill="#263239" d="M92.011,48.004c0,24.049-19.704,43.545-44.012,43.545c-24.303,0-44.01-19.496-44.01-43.545
			c0-24.054,19.707-43.554,44.01-43.554C72.307,4.451,92.011,23.95,92.011,48.004z"/>
	</g>
	<g>
		<path fill="#FFFFFF" d="M47.999,56.032l-6.947-6.088L21.169,66.988c0.72,0.667,1.699,1.085,2.775,1.085h48.118
			c1.071,0,2.046-0.418,2.758-1.085L54.956,49.944L47.999,56.032z"/>
		<path fill="#FFFFFF" d="M74.838,29.021c-0.726-0.676-1.699-1.094-2.775-1.094H23.945c-1.076,0-2.046,0.418-2.767,1.094
			l26.821,22.996L74.838,29.021z"/>
		<polygon fill="#FFFFFF" points="19.897,31.454 19.897,64.809 39.299,48.315"/>
		<polygon fill="#FFFFFF" points="56.699,48.315 76.102,64.809 76.102,31.44"/>
	</g>
</svg>
