<svg version="1.1"
	 xmlns="http://www.w3.org/2000/svg" xmlns:xlink="http://www.w3.org/1999/xlink" x="0px" y="0px" width="96px" height="96px"
	 viewBox="0 0 96 96" enable-background="new 0 0 96 96" xml:space="preserve">
	<g>
		<g>
			<g>
				
					<ellipse fill="#FFFFFF" stroke="#FFFFFF" stroke-width="0.3623" stroke-miterlimit="10" cx="48" cy="48" rx="43.834" ry="43.375"/>
			</g>
			<g>
				<g>
					<path fill="#263239" stroke="#FFFFFF" stroke-width="0.4059" stroke-miterlimit="10" d="M74.728,30.069l-0.968,0.303
						l-5.131,0.461l-1.449,2.313l-1.058-0.333l-4.084-3.687l-0.596-1.911l-0.794-2.044l-2.571-2.308l-3.027-0.591l-0.069,1.385
						l2.968,2.898l1.454,1.712l-1.633,0.854l-1.33-0.397l-1.995-0.829l0.07-1.608l-2.611-1.072l-0.873,3.777l-2.63,0.596
						l0.258,2.109l3.435,0.66l0.595-3.365l2.834,0.412l1.315,0.779h2.114l1.444,2.898l3.836,3.886l-0.283,1.514l-3.092-0.392
						l-5.34,2.7l-3.851,4.605l-0.497,2.044h-1.385l-2.575-1.186l-2.491,1.186l0.615,2.64l1.092-1.255l1.911-0.055l-0.134,2.363
						l1.583,0.461l1.584,1.782l2.58-0.729l2.958,0.466l3.425,0.924l1.707,0.198l2.903,3.3l5.598,3.291l-3.617,6.913l-3.827,1.776
						l-1.454,3.956l-5.528,3.697l-0.586,2.124c14.14-3.404,24.656-16.104,24.656-31.296C80.183,41.365,78.167,35.191,74.728,30.069z
						"/>
					<path fill="#263239" stroke="#FFFFFF" stroke-width="0.4059" stroke-miterlimit="10" d="M51.666,64.844l-2.348-4.353L51.472,56
						l-2.153-0.64l-2.417-2.433l-5.36-1.2l-1.782-3.723v2.209H38.98l-4.625-6.264v-5.142l-3.385-5.503l-5.37,0.958h-3.623
						l-1.821-1.196l2.323-1.846l-2.318,0.541c-2.799,4.769-4.427,10.308-4.427,16.243c0,17.792,14.432,32.224,32.229,32.224
						c1.37,0,2.709-0.119,4.04-0.282l-0.337-3.906c0,0,1.479-5.792,1.479-5.995C53.145,69.847,51.666,64.844,51.666,64.844z"/>
					<path fill="#263239" stroke="#FFFFFF" stroke-width="0.4059" stroke-miterlimit="10" d="M27.71,26.158l5.727-0.794l2.635-1.449
						l2.968,0.859l4.745-0.263l1.627-2.556l2.368,0.392l5.756-0.541l1.584-1.747l2.238-1.494l3.161,0.476l1.156-0.173
						c-4.169-1.965-8.805-3.097-13.717-3.097c-10,0-18.943,4.561-24.849,11.717h0.015L27.71,26.158z M49.323,18.977l3.285-1.812
						l2.114,1.216l-3.057,2.333l-2.924,0.292l-1.315-0.854L49.323,18.977z M39.571,19.24l1.454,0.605l1.9-0.605l1.038,1.796
						l-4.392,1.151l-2.109-1.235C37.462,20.953,39.526,19.623,39.571,19.24z"/>
				</g>
			</g>
		</g>
	</g>
</svg>
