<svg version="1.1"
	 xmlns="http://www.w3.org/2000/svg" xmlns:xlink="http://www.w3.org/1999/xlink" x="0px" y="0px" width="96px" height="96px"
	 viewBox="0 0 96 96" enable-background="new 0 0 96 96" xml:space="preserve">
	<g>
		<g>
			<g>
				<g>
					
						<ellipse fill="#FFFFFF" stroke="#FFFFFF" stroke-width="0.3623" stroke-miterlimit="10" cx="48" cy="48" rx="43.743" ry="43.284"/>
				</g>
			</g>
			<g>
				<g>
					<path fill="#263239" d="M54.529,61.693c4.665-7.745,10.568-18.621,10.568-24.217c0-9.435-7.676-17.106-17.11-17.106
						s-17.111,7.671-17.111,17.106c0,5.596,5.903,16.472,10.568,24.217c-5.537,0.416-18.136,1.917-18.136,6.904
						c0,4.902,12.792,7.136,24.693,7.136c11.886,0,24.684-2.233,24.684-7.136C72.675,63.61,60.066,62.109,54.529,61.693
						L54.529,61.693z M33.244,37.476c0-8.137,6.617-14.758,14.744-14.758c8.137,0,14.753,6.621,14.753,14.758
						c0,7.107-11.321,24.941-14.753,30.18C44.555,62.417,33.244,44.583,33.244,37.476L33.244,37.476z M47.987,73.376
						c-14.452,0-22.331-3.164-22.331-4.794c0-1.253,5.2-3.951,17.175-4.64c2.253,3.62,3.957,6.19,4.18,6.497
						c0.307,0.406,1.203,0.892,1.961,0c0.237-0.287,1.932-2.877,4.18-6.497c11.976,0.688,17.176,3.377,17.176,4.64
						C70.313,70.222,62.438,73.376,47.987,73.376L47.987,73.376z"/>
					<path fill="#263239" d="M55.431,37.476c0-4.116-3.328-7.449-7.443-7.449c-4.116,0-7.444,3.333-7.444,7.449
						c0,4.11,3.328,7.448,7.444,7.448C52.103,44.924,55.431,41.586,55.431,37.476z M42.891,37.476c0-2.813,2.283-5.096,5.096-5.096
						c2.817,0,5.096,2.283,5.096,5.096s-2.283,5.096-5.096,5.096C45.174,42.572,42.891,40.289,42.891,37.476z"/>
				</g>
			</g>
		</g>
	</g>
</svg>
