<svg version="1.1"
	 xmlns="http://www.w3.org/2000/svg" xmlns:xlink="http://www.w3.org/1999/xlink" x="0px" y="0px" width="96px" height="96px"
	 viewBox="0 0 96 96" enable-background="new 0 0 96 96" xml:space="preserve">
	<g>
		<g>
			<g>
				<g>
					<path fill="#FFFFFF" stroke="#FFFFFF" stroke-width="0.3623" stroke-miterlimit="10" d="M92.145,48.13
						c0,24.126-19.759,43.674-44.134,43.674c-24.375,0-44.139-19.548-44.139-43.674c0-24.118,19.763-43.671,44.139-43.671
						C72.386,4.458,92.145,24.012,92.145,48.13z"/>
				</g>
			</g>
			<g>
				<path fill="#263239" d="M62.467,13.768H33.549c-2.768,0-4.997,2.244-4.997,5.007v58.717c0,2.758,2.229,5.007,4.997,5.007h28.917
					c2.764,0,5.002-2.249,5.002-5.007V18.775C67.469,16.011,65.23,13.768,62.467,13.768z M40.875,16.811h14.272
					c0.359,0,0.658,0.535,0.658,1.199c0,0.669-0.299,1.209-0.658,1.209H40.875c-0.365,0-0.65-0.54-0.65-1.209
					C40.226,17.346,40.51,16.811,40.875,16.811z M48.011,77.553c-1.759,0-3.188-1.429-3.188-3.188c0-1.77,1.429-3.198,3.188-3.198
					s3.188,1.429,3.188,3.198C51.199,76.124,49.77,77.553,48.011,77.553z M63.722,66.608H32.3V22.218h31.422V66.608L63.722,66.608z"
					/>
			</g>
		</g>
	</g>
</svg>
