<svg version="1.1"
	 xmlns="http://www.w3.org/2000/svg" xmlns:xlink="http://www.w3.org/1999/xlink" x="0px" y="0px" width="96px" height="96px"
	 viewBox="0 0 96 96" enable-background="new 0 0 96 96" xml:space="preserve">
	<g>
		<g>
			<g>
				<g>
					<g>
						<path fill="#263239" stroke="#263239" stroke-width="0.7043" stroke-miterlimit="10" d="M90.988,48.054
							c0,24.003-19.255,43.461-43,43.461c-23.75,0-43.003-19.458-43.003-43.461c0-24.004,19.253-43.466,43.003-43.466
							C71.733,4.588,90.988,24.05,90.988,48.054z"/>
					</g>
				</g>
			</g>
			<g>
				<path fill="#FFFFFF" d="M68.104,27.104h-1.55v36.655c0,2.438-2.063,4.417-4.598,4.417H46.225h-12.51v1.359
					c0,1.555,1.315,2.819,2.934,2.819h15.726h15.726c1.619,0,2.935-1.265,2.935-2.819v-39.61
					C71.035,28.368,69.727,27.104,68.104,27.104z"/>
				<path fill="#FFFFFF" d="M46.225,66.579H61.95c1.619,0,2.936-1.264,2.936-2.82V27.104v-2.956c0-1.555-1.316-2.819-2.936-2.819
					H46.225h-5.228v0.934c0.013,0.096,0.018,0.196,0.018,0.298v6.142v1.578c0,2.189-1.854,3.97-4.132,3.97H35.24h-6.392
					c-0.082,0-0.17-0.007-0.254-0.011h-1.021v29.519c0,1.557,1.314,2.82,2.933,2.82h3.218H46.225L46.225,66.579z M46.818,56.998
					h-10.25c-0.767,0-1.389-0.596-1.389-1.332c0-0.735,0.622-1.332,1.389-1.332h10.256c0.765,0,1.387,0.597,1.387,1.332
					C48.211,56.402,47.583,56.998,46.818,56.998z M57.078,50.198H36.569c-0.767,0-1.389-0.597-1.389-1.333
					c0-0.734,0.622-1.332,1.389-1.332h20.509c0.764,0,1.385,0.598,1.385,1.332C58.463,49.602,57.842,50.198,57.078,50.198z
					 M36.569,40.314h20.509c0.764,0,1.385,0.598,1.385,1.334c0,0.732-0.621,1.33-1.385,1.33H36.569c-0.767,0-1.389-0.598-1.389-1.33
					C35.18,40.912,35.802,40.314,36.569,40.314z"/>
				<path fill="#FFFFFF" d="M28.848,32.654h8.035c0.007,0,0.017,0,0.023,0c1.341-0.013,2.428-1.058,2.439-2.345
					c0-0.006,0-0.017,0-0.024v-7.724c0-0.715-0.611-1.191-1.243-1.191c-0.304,0-0.609,0.106-0.863,0.352l-9.267,8.905
					C27.196,31.373,27.745,32.654,28.848,32.654z"/>
			</g>
		</g>
	</g>
</svg>
