<svg version="1.1"
	 xmlns="http://www.w3.org/2000/svg" xmlns:xlink="http://www.w3.org/1999/xlink" x="0px" y="0px" width="96px" height="96px"
	 viewBox="0 0 96 96" enable-background="new 0 0 96 96" xml:space="preserve">
	<g>
		<g>
			<g>
				<path fill="#263239" d="M92.011,48.004c0,24.049-19.704,43.544-44.012,43.544c-24.303,0-44.009-19.495-44.009-43.544
					c0-24.054,19.706-43.553,44.009-43.553C72.307,4.451,92.011,23.95,92.011,48.004z"/>
			</g>
			<g>
				<path fill="#FFFFFF" d="M68.748,68.865c0-1.708-1.379-3.087-3.082-3.087H30.337c-1.704,0-3.083,1.379-3.083,3.087
					c0,1.703,1.379,3.082,3.083,3.082h35.329C67.369,71.947,68.748,70.564,68.748,68.865z"/>
				<path fill="#FFFFFF" d="M24.141,43.903c0.049,0,0.098,0,0.143-0.009l4.893,17.698h18.828h18.819l4.893-17.698
					c0.054,0,0.098,0.009,0.147,0.009c2.023,0,3.665-1.646,3.665-3.669c0-2.023-1.642-3.669-3.665-3.669
					c-2.024,0-3.67,1.646-3.67,3.669c0,0.392,0.063,0.774,0.178,1.125l-8.838,5.173l-9.505-15.759
					c0.987-0.654,1.642-1.779,1.642-3.056c0-2.024-1.642-3.665-3.666-3.665c-2.023,0-3.669,1.641-3.669,3.665
					c0,1.281,0.649,2.402,1.646,3.056l-9.505,15.759l-8.842-5.173c0.111-0.352,0.183-0.734,0.183-1.125
					c0-2.023-1.646-3.669-3.67-3.669c-2.032,0-3.669,1.646-3.669,3.669C20.476,42.258,22.113,43.903,24.141,43.903z"/>
			</g>
		</g>
	</g>
</svg>
