<svg version="1.1"
	 xmlns="http://www.w3.org/2000/svg" xmlns:xlink="http://www.w3.org/1999/xlink" x="0px" y="0px" width="96px" height="96px"
	 viewBox="0 0 96 96" enable-background="new 0 0 96 96" xml:space="preserve">

	<g>
		<g>
			<g>
				<g>
					<path fill="#263239" stroke="#263239" stroke-width="0.7043" stroke-miterlimit="10" d="M90.73,48.058
						c0,23.855-19.14,43.196-42.742,43.196c-23.607,0-42.746-19.341-42.746-43.196c0-23.864,19.138-43.208,42.746-43.208
						C71.591,4.85,90.73,24.194,90.73,48.058z"/>
				</g>
			</g>
			<g>
				<path fill="#FFFFFF" d="M47.988,54.79l-20.116-6.191v6.092v4.247c0,4.782,9.008,8.657,20.121,8.657s20.12-3.875,20.12-8.657
					c0-0.035-0.012-0.075-0.012-0.11V48.599L47.988,54.79z"/>
				<path fill="#FFFFFF" d="M14.271,41.481l7.188,2.571l0.612-1.312l2.638-0.225l0.378,0.393l-2.267,0.537l-0.329,0.976
					c0,0-5.117,10.697-4.366,15.929c0,0,3.193,1.904,6.387,0l0.846-14.306v-1.19l4.752-1.075l-0.334,0.828l-3.545,1.15l1.641,0.589
					l20.116,6.19l20.11-6.19l13.604-4.866l-33.714-12.97L14.271,41.481z"/>
			</g>
		</g>
	</g>
</svg>
