<svg version="1.1"
	 xmlns="http://www.w3.org/2000/svg" xmlns:xlink="http://www.w3.org/1999/xlink" x="0px" y="0px" width="96px" height="96px"
	 viewBox="0 0 96 96" enable-background="new 0 0 96 96" xml:space="preserve">
	<g>
		<g>
			<g>
				<path fill="#263239" d="M91.979,47.89c0,23.982-19.648,43.416-43.88,43.416c-24.234,0-43.88-19.434-43.88-43.416
					C4.22,23.91,23.866,4.472,48.1,4.472C72.331,4.472,91.979,23.91,91.979,47.89z"/>
			</g>
			<g>
				<path fill="#FFFFFF" d="M48.1,47.213c6.869,0,12.438-6.763,12.438-15.11c0-8.344-1.827-15.11-12.438-15.11
					c-10.614,0-12.44,6.766-12.44,15.11C35.659,40.45,41.229,47.213,48.1,47.213z"/>
				<path fill="#FFFFFF" d="M24.601,70.289C24.599,69.78,24.597,70.143,24.601,70.289L24.601,70.289z"/>
				<path fill="#FFFFFF" d="M71.599,70.685C71.603,70.543,71.599,69.718,71.599,70.685L71.599,70.685z"/>
				<path fill="#FFFFFF" d="M71.568,69.674c-0.229-14.539-2.129-18.677-16.658-21.301c0,0-2.042,2.606-6.811,2.606
					c-4.768,0-6.813-2.606-6.813-2.606c-14.373,2.595-16.385,6.674-16.652,20.831c-0.021,1.153-0.032,1.217-0.034,1.085
					c0,0.249,0,0.714,0,1.524c0,0,3.462,6.976,23.499,6.976c20.039,0,23.499-6.976,23.499-6.976c0-0.518,0-0.88,0-1.129
					C71.593,70.769,71.583,70.606,71.568,69.674z"/>
			</g>
		</g>
	</g>
</svg>
