<svg version="1.1"
	 xmlns="http://www.w3.org/2000/svg" xmlns:xlink="http://www.w3.org/1999/xlink" x="0px" y="0px" width="96px" height="96px"
	 viewBox="0 0 96 96" enable-background="new 0 0 96 96" xml:space="preserve">

	<g>
		<g>
			<g>
				<path fill="#263239" stroke="#263239" stroke-width="0.7043" stroke-miterlimit="10" d="M91.521,48.005
					c0,24.292-19.487,43.983-43.521,43.983c-24.037,0-43.523-19.691-43.523-43.983c0-24.297,19.486-43.994,43.523-43.994
					C72.034,4.011,91.521,23.708,91.521,48.005z"/>
			</g>
			<g>
				<g>
					<path fill="#F5F6F7" d="M55.457,57.585c0,0.578-0.213,1.075-0.636,1.498c-0.421,0.424-0.917,0.633-1.496,0.633H42.674
						c-0.577,0-1.076-0.209-1.5-0.633c-0.419-0.423-0.63-0.92-0.63-1.498v-5.324H18.178v15.975c0,1.463,0.521,2.718,1.564,3.762
						c1.044,1.042,2.297,1.565,3.761,1.565h48.992c1.466,0,2.719-0.523,3.761-1.565c1.046-1.044,1.565-2.299,1.565-3.762V52.261
						H55.457V57.585L55.457,57.585z"/>
					<rect x="43.737" y="52.261" fill="#F5F6F7" width="8.522" height="4.258"/>
					<path fill="#F5F6F7" d="M76.256,32.523c-1.042-1.044-2.295-1.564-3.761-1.564H60.781v-5.327c0-0.887-0.313-1.641-0.933-2.262
						c-0.62-0.62-1.377-0.931-2.26-0.931H38.416c-0.889,0-1.645,0.312-2.268,0.931c-0.62,0.62-0.927,1.375-0.927,2.262v5.327H23.503
						c-1.464,0-2.717,0.52-3.761,1.564c-1.043,1.043-1.564,2.296-1.564,3.761v12.779h59.644V36.284
						C77.821,34.819,77.302,33.566,76.256,32.523z M56.522,30.958H39.479v-4.261h17.043V30.958z"/>
				</g>
			</g>
		</g>
	</g>
</svg>
